<?xml version="1.0" encoding="utf-8"?>
<!-- Svg Vector Icons : http://www.onlinewebfonts.com/icon -->
<!DOCTYPE svg PUBLIC "-//W3C//DTD SVG 1.1//EN" "http://www.w3.org/Graphics/SVG/1.1/DTD/svg11.dtd">
<svg version="1.1" style="fill:#fff" xmlns="http://www.w3.org/2000/svg" xmlns:xlink="http://www.w3.org/1999/xlink" x="0px" y="0px" viewBox="0 0 1000 1000" enable-background="new 0 0 1000 1000" xml:space="preserve">
<metadata> Svg Vector Icons : http://www.onlinewebfonts.com/icon </metadata>
<g><g transform="translate(0.000000,511.000000) scale(0.100000,-0.100000)"><path d="M7595.4,4173.7c-138-28.8-6048-2068.4-6147.7-2122.1c-214.7-116.9-416-377.6-494.6-636.4c-28.8-101.6-34.5-105.4-115-126.5C531.3,1210,261,951.2,144.1,627.3L100,502.7v-1811.6v-1811.5l42.2-134.2c80.5-255,262.6-473.5,498.4-600c239.6-126.5,34.5-120.8,3594.3-115l3226.2,5.7l113.1,44.1c331.6,124.6,569.3,381.5,653.7,703.5c23,93.9,28.8,270.3,28.8,1037.1v922.1l552.1,207c302.9,113.1,588.5,228.1,636.4,255c287.6,164.9,486.9,552.1,450.5,876.1c-17.2,145.7-1025.6,3347-1108,3517.6c-84.4,170.6-285.6,371.9-467.8,467.7C8103.3,4177.5,7823.5,4219.7,7595.4,4173.7z M8109.1,3717.4c205.1-101.6,385.3-335.5,400.7-519.5l5.7-67.1l-2885-895.2l-2885-897.1l-693.9-1.9c-559.7,0-695.9,5.7-695.9,24.9c0,82.4,214.7,318.2,333.5,368.1c46,19.2,5298.5,1830.7,5848.7,2016.6C7733.4,3811.4,7938.5,3801.8,8109.1,3717.4z M8703.4,2607.5c26.8-82.4,214.7-674.8,417.9-1318.9C9460.5,222.8,9493.1,107.8,9493.1-14.9c-1.9-151.4-42.2-249.2-145.7-352.7c-82.4-82.5-138-109.3-611.5-285.6c-226.2-84.4-427.5-161-444.7-166.8c-32.6-13.4-34.5,24.9-34.5,634.5c0,701.6-5.7,755.3-107.3,960.4c-28.8,59.4-105.4,164.9-172.5,233.9c-124.6,132.3-232,203.2-423.7,276c-111.2,40.3-120.8,42.2-1778.9,51.8l-1667.8,9.6l2262,703.5c1244.1,387.2,2267.8,703.5,2275.4,703.5C8651.6,2755.1,8678.4,2688,8703.4,2607.5z M7491.8,884.2c107.4-49.8,218.6-145.7,278-241.5c103.5-162.9,103.5-155.3,103.5-1955.3c0-1683.1-3.8-1788.5-70.9-1920.8c-47.9-92-182.1-222.4-283.7-276l-95.8-51.8l-3214.8-5.8l-3214.8-3.8l-105.4,40.2c-130.4,47.9-272.2,180.2-337.4,314.4l-47.9,95.8v1782.8C502.6,374.2,504.5,449,539,541c40.3,103.5,178.3,264.5,270.3,312.5c155.3,80.5,65.2,78.6,3402.6,74.8l3191.8-3.8L7491.8,884.2z"/><path d="M1418.9-1561.9c-59.4-28.8-107.3-138-92-207c7.7-30.7,38.3-78.6,70.9-105.4l57.5-47.9h891.4h891.4l55.6,55.6c44.1,44.1,55.6,72.8,55.6,136.1c0,63.3-11.5,92-55.6,136.1l-55.6,55.6l-889.5-1.9C1763.9-1540.8,1445.7-1548.5,1418.9-1561.9z"/><path d="M1436.1-2372.8c-72.9-32.6-128.4-141.8-109.3-216.6c5.7-24.9,36.4-70.9,67.1-101.6l53.7-55.6h1489.5c1596.8,0,1568.1-1.9,1619.8,93.9c24.9,49.8,24.9,141.8-1.9,201.3c-49.8,109.3-17.3,107.3-1602.6,107.3C1737.1-2345.9,1489.8-2349.8,1436.1-2372.8z"/></g></g>
</svg>