<?xml version="1.0" standalone="no"?>
<!DOCTYPE svg PUBLIC "-//W3C//DTD SVG 20010904//EN"
 "http://www.w3.org/TR/2001/REC-SVG-20010904/DTD/svg10.dtd">
<svg version="1.0" xmlns="http://www.w3.org/2000/svg"
 width="50.000000pt" height="50.000000pt" viewBox="0 0 50.000000 50.000000"
 preserveAspectRatio="xMidYMid meet">

<g transform="translate(0.000000,50.000000) scale(0.100000,-0.100000)">
<path d="M322 483 c-13 -5 -42 -55 -42 -73 0 -18 21 -11 51 19 42 42 37 73 -9
54z" fill="#fff"/>
<path d="M148 370 c-15 -12 -32 -39 -38 -61 -10 -34 -14 -39 -41 -39 -16 0
-32 -6 -35 -14 -8 -20 45 -218 63 -238 14 -16 36 -18 159 -18 111 0 146 3 157
14 18 18 72 230 62 245 -3 6 -24 11 -46 11 -46 0 -52 21 -17 65 21 27 21 28 2
42 -13 10 -34 13 -69 9 -70 -8 -75 -8 -125 -1 -37 6 -50 3 -72 -15z m-40 -168
c2 -7 -6 -12 -17 -12 -21 0 -27 11 -14 24 9 9 26 2 31 -12z m92 3 c0 -11 -10
-15 -35 -15 -47 0 -47 25 0 28 26 2 35 -1 35 -13z m90 0 c0 -10 -11 -15 -35
-15 -24 0 -35 5 -35 15 0 10 11 15 35 15 24 0 35 -5 35 -15z m90 -2 c0 -8 -14
-13 -35 -13 -24 0 -35 5 -35 15 0 11 9 14 35 12 20 -1 35 -7 35 -14z m60 2 c0
-8 -9 -15 -20 -15 -20 0 -26 11 -13 23 12 13 33 7 33 -8z m-322 -73 c3 -25 0
-31 -12 -26 -9 3 -16 9 -16 13 0 3 -3 16 -6 28 -5 17 -2 21 13 19 12 -2 19
-13 21 -34z m82 5 c0 -31 -2 -33 -29 -29 -21 3 -30 11 -34 28 -4 25 4 32 41
33 18 1 22 -4 22 -32z m90 4 c0 -24 -5 -29 -30 -33 -36 -5 -40 -3 -40 34 0 25
3 28 35 28 32 0 35 -3 35 -29z m86 13 c-3 -9 -6 -22 -6 -29 0 -7 -13 -15 -30
-17 -28 -4 -30 -3 -30 29 0 31 2 33 36 33 29 0 35 -3 30 -16z m53 -1 c-1 -26
-12 -48 -26 -50 -14 -3 -17 25 -7 51 8 22 34 20 33 -1z m-299 -98 c0 -14 -4
-25 -10 -25 -5 0 -10 4 -10 9 0 5 -3 16 -6 25 -4 11 -1 16 10 16 10 0 16 -9
16 -25z m80 -1 c0 -22 -4 -25 -27 -22 -20 2 -29 9 -31 26 -3 19 1 22 27 22 27
0 31 -4 31 -26z m70 1 c0 -20 -5 -25 -25 -25 -20 0 -25 5 -25 25 0 20 5 25 25
25 20 0 25 -5 25 -25z m80 0 c0 -21 -5 -25 -30 -25 -25 0 -30 4 -30 25 0 21 5
25 30 25 25 0 30 -4 30 -25z m50 16 c0 -17 -12 -41 -21 -41 -5 0 -9 11 -9 25
0 16 6 25 15 25 8 0 15 -4 15 -9z" fill="#fff"/>
</g>
</svg>
